<svg width="35" height="35" viewBox="0 0 35 35" fill="none" xmlns="http://www.w3.org/2000/svg">
<rect x="1" y="1" width="33" height="33" rx="4" stroke="#736EEF" stroke-width="2"/>
<path d="M22.5439 8.08631C22.8584 7.77205 23.2848 7.59552 23.7293 7.59552C24.1739 7.59552 24.6003 7.77205 24.9148 8.08631L27.3931 10.5646C27.7073 10.879 27.8838 11.3054 27.8838 11.75C27.8838 12.1946 27.7073 12.621 27.3931 12.9355L24.7164 15.6121L24.7049 15.6246L14.3281 25.5289C14.1385 25.7101 13.909 25.8443 13.6582 25.9209L8.36535 27.5309C8.2409 27.5686 8.10854 27.5718 7.98243 27.54C7.85633 27.5083 7.74123 27.4429 7.64947 27.3507C7.55733 27.259 7.49189 27.1439 7.46015 27.0178C7.42842 26.8917 7.43158 26.7593 7.46931 26.6348L9.0726 21.364C9.15668 21.0881 9.3105 20.8386 9.51918 20.6395L19.873 10.7562L22.5439 8.08631ZM10.512 21.6793C10.4824 21.708 10.4603 21.7435 10.4478 21.7828L9.23647 25.7637L13.2394 24.5457C13.2753 24.5345 13.3081 24.5152 13.3353 24.4891L23.1802 15.0917L20.3627 12.2752L10.512 21.6793ZM24.2085 14.0883L26.3772 11.9206C26.3995 11.8983 26.4172 11.8719 26.4293 11.8428C26.4414 11.8137 26.4476 11.7825 26.4476 11.751C26.4476 11.7195 26.4414 11.6883 26.4293 11.6591C26.4172 11.63 26.3995 11.6036 26.3772 11.5813L23.899 9.1031C23.8767 9.08079 23.8503 9.06309 23.8212 9.05101C23.7921 9.03893 23.7609 9.03271 23.7293 9.03271C23.6978 9.03271 23.6666 9.03893 23.6375 9.05101C23.6084 9.06309 23.582 9.08079 23.5597 9.1031L21.392 11.2708L24.2085 14.0883Z" fill="#736EEF"/>
</svg>
